<mxfile host="app.diagrams.net" agent="Mozilla/5.0 (Windows NT 10.0; Win64; x64) AppleWebKit/537.36 (KHTML, like Gecko) Chrome/129.0.0.0 Safari/537.36" version="24.7.17">
  <diagram name="Страница — 1" id="zSCGIvUuBZdu_Xor0hQM">
    <mxGraphModel dx="1436" dy="774" grid="1" gridSize="10" guides="1" tooltips="1" connect="1" arrows="1" fold="1" page="1" pageScale="1" pageWidth="827" pageHeight="1169" math="0" shadow="0">
      <root>
        <mxCell id="0" />
        <mxCell id="1" parent="0" />
        <mxCell id="emmkqpBWdBEhl7w6q0PS-4" value="&lt;div style=&quot;text-align: justify;&quot;&gt;&lt;span style=&quot;background-color: initial;&quot;&gt;100&lt;/span&gt;&lt;/div&gt;" style="rounded=1;whiteSpace=wrap;html=1;absoluteArcSize=1;arcSize=14;strokeWidth=2;" parent="1" vertex="1">
          <mxGeometry x="28" y="320" width="120" height="200" as="geometry" />
        </mxCell>
        <mxCell id="emmkqpBWdBEhl7w6q0PS-5" value="" style="rounded=1;whiteSpace=wrap;html=1;absoluteArcSize=1;arcSize=14;strokeWidth=2;" parent="1" vertex="1">
          <mxGeometry x="188" y="320" width="120" height="200" as="geometry" />
        </mxCell>
        <mxCell id="emmkqpBWdBEhl7w6q0PS-6" value="" style="rounded=1;whiteSpace=wrap;html=1;absoluteArcSize=1;arcSize=14;strokeWidth=2;" parent="1" vertex="1">
          <mxGeometry x="350" y="305" width="120" height="200" as="geometry" />
        </mxCell>
        <mxCell id="emmkqpBWdBEhl7w6q0PS-7" value="" style="rounded=1;whiteSpace=wrap;html=1;absoluteArcSize=1;arcSize=14;strokeWidth=2;" parent="1" vertex="1">
          <mxGeometry x="510" y="320" width="120" height="200" as="geometry" />
        </mxCell>
        <mxCell id="emmkqpBWdBEhl7w6q0PS-8" value="" style="rounded=1;whiteSpace=wrap;html=1;absoluteArcSize=1;arcSize=14;strokeWidth=2;" parent="1" vertex="1">
          <mxGeometry x="670" y="320" width="120" height="200" as="geometry" />
        </mxCell>
        <mxCell id="emmkqpBWdBEhl7w6q0PS-9" value="" style="shape=table;startSize=0;container=1;collapsible=0;childLayout=tableLayout;fontSize=16;" parent="1" vertex="1">
          <mxGeometry x="32" y="380" width="112" height="120" as="geometry" />
        </mxCell>
        <mxCell id="emmkqpBWdBEhl7w6q0PS-10" value="" style="shape=tableRow;horizontal=0;startSize=0;swimlaneHead=0;swimlaneBody=0;strokeColor=inherit;top=0;left=0;bottom=0;right=0;collapsible=0;dropTarget=0;fillColor=none;points=[[0,0.5],[1,0.5]];portConstraint=eastwest;fontSize=16;" parent="emmkqpBWdBEhl7w6q0PS-9" vertex="1">
          <mxGeometry width="112" height="40" as="geometry" />
        </mxCell>
        <mxCell id="emmkqpBWdBEhl7w6q0PS-11" value="" style="shape=partialRectangle;html=1;whiteSpace=wrap;connectable=0;strokeColor=inherit;overflow=hidden;fillColor=none;top=0;left=0;bottom=0;right=0;pointerEvents=1;fontSize=16;" parent="emmkqpBWdBEhl7w6q0PS-10" vertex="1">
          <mxGeometry width="37" height="40" as="geometry">
            <mxRectangle width="37" height="40" as="alternateBounds" />
          </mxGeometry>
        </mxCell>
        <mxCell id="emmkqpBWdBEhl7w6q0PS-12" value="" style="shape=partialRectangle;html=1;whiteSpace=wrap;connectable=0;strokeColor=inherit;overflow=hidden;fillColor=none;top=0;left=0;bottom=0;right=0;pointerEvents=1;fontSize=16;" parent="emmkqpBWdBEhl7w6q0PS-10" vertex="1">
          <mxGeometry x="37" width="38" height="40" as="geometry">
            <mxRectangle width="38" height="40" as="alternateBounds" />
          </mxGeometry>
        </mxCell>
        <mxCell id="emmkqpBWdBEhl7w6q0PS-13" value="" style="shape=partialRectangle;html=1;whiteSpace=wrap;connectable=0;strokeColor=inherit;overflow=hidden;fillColor=none;top=0;left=0;bottom=0;right=0;pointerEvents=1;fontSize=16;" parent="emmkqpBWdBEhl7w6q0PS-10" vertex="1">
          <mxGeometry x="75" width="37" height="40" as="geometry">
            <mxRectangle width="37" height="40" as="alternateBounds" />
          </mxGeometry>
        </mxCell>
        <mxCell id="emmkqpBWdBEhl7w6q0PS-14" value="" style="shape=tableRow;horizontal=0;startSize=0;swimlaneHead=0;swimlaneBody=0;strokeColor=inherit;top=0;left=0;bottom=0;right=0;collapsible=0;dropTarget=0;fillColor=none;points=[[0,0.5],[1,0.5]];portConstraint=eastwest;fontSize=16;" parent="emmkqpBWdBEhl7w6q0PS-9" vertex="1">
          <mxGeometry y="40" width="112" height="40" as="geometry" />
        </mxCell>
        <mxCell id="emmkqpBWdBEhl7w6q0PS-15" value="" style="shape=partialRectangle;html=1;whiteSpace=wrap;connectable=0;strokeColor=inherit;overflow=hidden;fillColor=none;top=0;left=0;bottom=0;right=0;pointerEvents=1;fontSize=16;" parent="emmkqpBWdBEhl7w6q0PS-14" vertex="1">
          <mxGeometry width="37" height="40" as="geometry">
            <mxRectangle width="37" height="40" as="alternateBounds" />
          </mxGeometry>
        </mxCell>
        <mxCell id="emmkqpBWdBEhl7w6q0PS-16" value="&lt;div style=&quot;text-align: justify;&quot;&gt;&lt;br&gt;&lt;/div&gt;" style="shape=partialRectangle;html=1;whiteSpace=wrap;connectable=0;strokeColor=inherit;overflow=hidden;fillColor=none;top=0;left=0;bottom=0;right=0;pointerEvents=1;fontSize=16;" parent="emmkqpBWdBEhl7w6q0PS-14" vertex="1">
          <mxGeometry x="37" width="38" height="40" as="geometry">
            <mxRectangle width="38" height="40" as="alternateBounds" />
          </mxGeometry>
        </mxCell>
        <mxCell id="emmkqpBWdBEhl7w6q0PS-17" value="" style="shape=partialRectangle;html=1;whiteSpace=wrap;connectable=0;strokeColor=inherit;overflow=hidden;fillColor=none;top=0;left=0;bottom=0;right=0;pointerEvents=1;fontSize=16;" parent="emmkqpBWdBEhl7w6q0PS-14" vertex="1">
          <mxGeometry x="75" width="37" height="40" as="geometry">
            <mxRectangle width="37" height="40" as="alternateBounds" />
          </mxGeometry>
        </mxCell>
        <mxCell id="emmkqpBWdBEhl7w6q0PS-18" value="" style="shape=tableRow;horizontal=0;startSize=0;swimlaneHead=0;swimlaneBody=0;strokeColor=inherit;top=0;left=0;bottom=0;right=0;collapsible=0;dropTarget=0;fillColor=none;points=[[0,0.5],[1,0.5]];portConstraint=eastwest;fontSize=16;" parent="emmkqpBWdBEhl7w6q0PS-9" vertex="1">
          <mxGeometry y="80" width="112" height="40" as="geometry" />
        </mxCell>
        <mxCell id="emmkqpBWdBEhl7w6q0PS-19" value="" style="shape=partialRectangle;html=1;whiteSpace=wrap;connectable=0;strokeColor=inherit;overflow=hidden;fillColor=none;top=0;left=0;bottom=0;right=0;pointerEvents=1;fontSize=16;" parent="emmkqpBWdBEhl7w6q0PS-18" vertex="1">
          <mxGeometry width="37" height="40" as="geometry">
            <mxRectangle width="37" height="40" as="alternateBounds" />
          </mxGeometry>
        </mxCell>
        <mxCell id="emmkqpBWdBEhl7w6q0PS-20" value="" style="shape=partialRectangle;html=1;whiteSpace=wrap;connectable=0;strokeColor=inherit;overflow=hidden;fillColor=none;top=0;left=0;bottom=0;right=0;pointerEvents=1;fontSize=16;" parent="emmkqpBWdBEhl7w6q0PS-18" vertex="1">
          <mxGeometry x="37" width="38" height="40" as="geometry">
            <mxRectangle width="38" height="40" as="alternateBounds" />
          </mxGeometry>
        </mxCell>
        <mxCell id="emmkqpBWdBEhl7w6q0PS-21" value="" style="shape=partialRectangle;html=1;whiteSpace=wrap;connectable=0;strokeColor=inherit;overflow=hidden;fillColor=none;top=0;left=0;bottom=0;right=0;pointerEvents=1;fontSize=16;" parent="emmkqpBWdBEhl7w6q0PS-18" vertex="1">
          <mxGeometry x="75" width="37" height="40" as="geometry">
            <mxRectangle width="37" height="40" as="alternateBounds" />
          </mxGeometry>
        </mxCell>
        <mxCell id="emmkqpBWdBEhl7w6q0PS-23" value="" style="verticalLabelPosition=bottom;verticalAlign=top;html=1;shape=mxgraph.flowchart.on-page_reference;" parent="1" vertex="1">
          <mxGeometry x="32" y="330" width="42" height="40" as="geometry" />
        </mxCell>
        <mxCell id="emmkqpBWdBEhl7w6q0PS-24" value="10p" style="text;html=1;align=left;verticalAlign=middle;resizable=0;points=[];autosize=1;strokeColor=none;fillColor=none;fontSize=5;" parent="1" vertex="1">
          <mxGeometry x="80" y="350" width="30" height="20" as="geometry" />
        </mxCell>
        <mxCell id="emmkqpBWdBEhl7w6q0PS-25" value="120f" style="text;html=1;align=right;verticalAlign=middle;resizable=0;points=[];autosize=1;strokeColor=none;fillColor=none;fontSize=5;" parent="1" vertex="1">
          <mxGeometry x="84" y="350" width="30" height="20" as="geometry" />
        </mxCell>
        <mxCell id="emmkqpBWdBEhl7w6q0PS-26" value="120f" style="text;html=1;align=center;verticalAlign=middle;resizable=0;points=[];autosize=1;strokeColor=none;fillColor=none;fontSize=5;" parent="1" vertex="1">
          <mxGeometry x="114" y="350" width="30" height="20" as="geometry" />
        </mxCell>
        <mxCell id="emmkqpBWdBEhl7w6q0PS-29" value="" style="line;strokeWidth=2;html=1;" parent="1" vertex="1">
          <mxGeometry x="124" y="330" width="10" height="12" as="geometry" />
        </mxCell>
        <mxCell id="emmkqpBWdBEhl7w6q0PS-30" value="" style="line;strokeWidth=2;html=1;" parent="1" vertex="1">
          <mxGeometry x="124" y="340" width="10" height="10" as="geometry" />
        </mxCell>
        <mxCell id="emmkqpBWdBEhl7w6q0PS-32" value="" style="line;strokeWidth=2;html=1;" parent="1" vertex="1">
          <mxGeometry x="124" y="340" width="10" height="1" as="geometry" />
        </mxCell>
        <mxCell id="emmkqpBWdBEhl7w6q0PS-33" value="" style="edgeStyle=segmentEdgeStyle;endArrow=classic;html=1;curved=0;rounded=0;endSize=8;startSize=8;exitX=0.593;exitY=0.531;exitDx=0;exitDy=0;exitPerimeter=0;" parent="1" edge="1">
          <mxGeometry width="50" height="50" relative="1" as="geometry">
            <mxPoint x="128.68" y="330.50200000000007" as="sourcePoint" />
            <mxPoint x="239.5" y="269.5" as="targetPoint" />
            <Array as="points">
              <mxPoint x="128.5" y="288.5" />
              <mxPoint x="128.5" y="288.5" />
            </Array>
          </mxGeometry>
        </mxCell>
        <mxCell id="emmkqpBWdBEhl7w6q0PS-34" value="настройки" style="edgeLabel;html=1;align=center;verticalAlign=middle;resizable=0;points=[];" parent="emmkqpBWdBEhl7w6q0PS-33" vertex="1" connectable="0">
          <mxGeometry x="0.9406" y="-1" relative="1" as="geometry">
            <mxPoint as="offset" />
          </mxGeometry>
        </mxCell>
        <mxCell id="emmkqpBWdBEhl7w6q0PS-36" value="" style="shape=singleArrow;whiteSpace=wrap;html=1;" parent="1" vertex="1">
          <mxGeometry x="148" y="410" width="38" height="7" as="geometry" />
        </mxCell>
        <mxCell id="emmkqpBWdBEhl7w6q0PS-37" value="" style="shape=singleArrow;whiteSpace=wrap;html=1;" parent="1" vertex="1">
          <mxGeometry x="308" y="410" width="38" height="7" as="geometry" />
        </mxCell>
        <mxCell id="emmkqpBWdBEhl7w6q0PS-38" value="Настройки" style="text;html=1;align=center;verticalAlign=middle;resizable=0;points=[];autosize=1;strokeColor=none;fillColor=none;fontSize=10;" parent="1" vertex="1">
          <mxGeometry x="213" y="330" width="70" height="30" as="geometry" />
        </mxCell>
        <mxCell id="emmkqpBWdBEhl7w6q0PS-39" value="История просмотра" style="text;html=1;align=center;verticalAlign=middle;resizable=0;points=[];autosize=1;strokeColor=none;fillColor=none;fontSize=10;" parent="1" vertex="1">
          <mxGeometry x="355.5" y="321" width="110" height="30" as="geometry" />
        </mxCell>
        <mxCell id="emmkqpBWdBEhl7w6q0PS-40" value="Все даты" style="text;html=1;align=center;verticalAlign=middle;resizable=0;points=[];autosize=1;strokeColor=none;fillColor=none;fontSize=10;" parent="1" vertex="1">
          <mxGeometry x="535" y="323" width="70" height="30" as="geometry" />
        </mxCell>
        <mxCell id="emmkqpBWdBEhl7w6q0PS-41" value="Диапазон дат" style="text;html=1;align=center;verticalAlign=middle;resizable=0;points=[];autosize=1;strokeColor=none;fillColor=none;fontSize=10;" parent="1" vertex="1">
          <mxGeometry x="687" y="323" width="90" height="30" as="geometry" />
        </mxCell>
        <mxCell id="emmkqpBWdBEhl7w6q0PS-42" value="" style="shape=singleArrow;whiteSpace=wrap;html=1;" parent="1" vertex="1">
          <mxGeometry x="470" y="410" width="38" height="7" as="geometry" />
        </mxCell>
        <mxCell id="emmkqpBWdBEhl7w6q0PS-43" value="" style="shape=singleArrow;whiteSpace=wrap;html=1;" parent="1" vertex="1">
          <mxGeometry x="630" y="410" width="38" height="7" as="geometry" />
        </mxCell>
        <mxCell id="emmkqpBWdBEhl7w6q0PS-45" value="" style="verticalLabelPosition=bottom;verticalAlign=top;html=1;shape=mxgraph.basic.rect;fillColor2=none;strokeWidth=1;size=20;indent=100;fillColor=#f5f5f5;fontColor=#333333;strokeColor=#666666;" parent="1" vertex="1">
          <mxGeometry x="193.5" y="367" width="109" height="13" as="geometry" />
        </mxCell>
        <mxCell id="emmkqpBWdBEhl7w6q0PS-46" value="" style="verticalLabelPosition=bottom;verticalAlign=top;html=1;shape=mxgraph.basic.rect;fillColor2=none;strokeWidth=1;size=20;indent=100;fillColor=#f5f5f5;fontColor=#333333;strokeColor=#666666;" parent="1" vertex="1">
          <mxGeometry x="193.5" y="382" width="109" height="13" as="geometry" />
        </mxCell>
        <mxCell id="emmkqpBWdBEhl7w6q0PS-47" value="" style="verticalLabelPosition=bottom;verticalAlign=top;html=1;shape=mxgraph.basic.rect;fillColor2=none;strokeWidth=1;size=20;indent=100;fillColor=#f5f5f5;fontColor=#333333;strokeColor=#666666;" parent="1" vertex="1">
          <mxGeometry x="193.5" y="397" width="109" height="13" as="geometry" />
        </mxCell>
        <mxCell id="emmkqpBWdBEhl7w6q0PS-48" value="" style="verticalLabelPosition=bottom;verticalAlign=top;html=1;shape=mxgraph.basic.rect;fillColor2=none;strokeWidth=1;size=20;indent=100;fillColor=#d5e8d4;strokeColor=#82b366;" parent="1" vertex="1">
          <mxGeometry x="193.5" y="412" width="109" height="13" as="geometry" />
        </mxCell>
        <mxCell id="emmkqpBWdBEhl7w6q0PS-50" value="&lt;font style=&quot;font-size: 7px;&quot;&gt;@nickname&lt;/font&gt;" style="text;html=1;align=center;verticalAlign=middle;resizable=0;points=[];autosize=1;strokeColor=none;fillColor=none;fontSize=7;" parent="1" vertex="1">
          <mxGeometry x="69" y="330.5" width="60" height="20" as="geometry" />
        </mxCell>
        <mxCell id="emmkqpBWdBEhl7w6q0PS-53" value="" style="shape=table;startSize=0;container=1;collapsible=0;childLayout=tableLayout;fontSize=16;" parent="1" vertex="1">
          <mxGeometry x="354" y="380" width="112" height="120" as="geometry" />
        </mxCell>
        <mxCell id="emmkqpBWdBEhl7w6q0PS-54" value="" style="shape=tableRow;horizontal=0;startSize=0;swimlaneHead=0;swimlaneBody=0;strokeColor=inherit;top=0;left=0;bottom=0;right=0;collapsible=0;dropTarget=0;fillColor=none;points=[[0,0.5],[1,0.5]];portConstraint=eastwest;fontSize=16;" parent="emmkqpBWdBEhl7w6q0PS-53" vertex="1">
          <mxGeometry width="112" height="40" as="geometry" />
        </mxCell>
        <mxCell id="emmkqpBWdBEhl7w6q0PS-55" value="" style="shape=partialRectangle;html=1;whiteSpace=wrap;connectable=0;strokeColor=inherit;overflow=hidden;fillColor=none;top=0;left=0;bottom=0;right=0;pointerEvents=1;fontSize=16;" parent="emmkqpBWdBEhl7w6q0PS-54" vertex="1">
          <mxGeometry width="37" height="40" as="geometry">
            <mxRectangle width="37" height="40" as="alternateBounds" />
          </mxGeometry>
        </mxCell>
        <mxCell id="emmkqpBWdBEhl7w6q0PS-56" value="" style="shape=partialRectangle;html=1;whiteSpace=wrap;connectable=0;strokeColor=inherit;overflow=hidden;fillColor=none;top=0;left=0;bottom=0;right=0;pointerEvents=1;fontSize=16;" parent="emmkqpBWdBEhl7w6q0PS-54" vertex="1">
          <mxGeometry x="37" width="38" height="40" as="geometry">
            <mxRectangle width="38" height="40" as="alternateBounds" />
          </mxGeometry>
        </mxCell>
        <mxCell id="emmkqpBWdBEhl7w6q0PS-57" value="" style="shape=partialRectangle;html=1;whiteSpace=wrap;connectable=0;strokeColor=inherit;overflow=hidden;fillColor=none;top=0;left=0;bottom=0;right=0;pointerEvents=1;fontSize=16;" parent="emmkqpBWdBEhl7w6q0PS-54" vertex="1">
          <mxGeometry x="75" width="37" height="40" as="geometry">
            <mxRectangle width="37" height="40" as="alternateBounds" />
          </mxGeometry>
        </mxCell>
        <mxCell id="emmkqpBWdBEhl7w6q0PS-58" value="" style="shape=tableRow;horizontal=0;startSize=0;swimlaneHead=0;swimlaneBody=0;strokeColor=inherit;top=0;left=0;bottom=0;right=0;collapsible=0;dropTarget=0;fillColor=none;points=[[0,0.5],[1,0.5]];portConstraint=eastwest;fontSize=16;" parent="emmkqpBWdBEhl7w6q0PS-53" vertex="1">
          <mxGeometry y="40" width="112" height="40" as="geometry" />
        </mxCell>
        <mxCell id="emmkqpBWdBEhl7w6q0PS-59" value="" style="shape=partialRectangle;html=1;whiteSpace=wrap;connectable=0;strokeColor=inherit;overflow=hidden;fillColor=none;top=0;left=0;bottom=0;right=0;pointerEvents=1;fontSize=16;" parent="emmkqpBWdBEhl7w6q0PS-58" vertex="1">
          <mxGeometry width="37" height="40" as="geometry">
            <mxRectangle width="37" height="40" as="alternateBounds" />
          </mxGeometry>
        </mxCell>
        <mxCell id="emmkqpBWdBEhl7w6q0PS-60" value="&lt;div style=&quot;text-align: justify;&quot;&gt;&lt;br&gt;&lt;/div&gt;" style="shape=partialRectangle;html=1;whiteSpace=wrap;connectable=0;strokeColor=inherit;overflow=hidden;fillColor=none;top=0;left=0;bottom=0;right=0;pointerEvents=1;fontSize=16;" parent="emmkqpBWdBEhl7w6q0PS-58" vertex="1">
          <mxGeometry x="37" width="38" height="40" as="geometry">
            <mxRectangle width="38" height="40" as="alternateBounds" />
          </mxGeometry>
        </mxCell>
        <mxCell id="emmkqpBWdBEhl7w6q0PS-61" value="" style="shape=partialRectangle;html=1;whiteSpace=wrap;connectable=0;strokeColor=inherit;overflow=hidden;fillColor=none;top=0;left=0;bottom=0;right=0;pointerEvents=1;fontSize=16;" parent="emmkqpBWdBEhl7w6q0PS-58" vertex="1">
          <mxGeometry x="75" width="37" height="40" as="geometry">
            <mxRectangle width="37" height="40" as="alternateBounds" />
          </mxGeometry>
        </mxCell>
        <mxCell id="emmkqpBWdBEhl7w6q0PS-62" value="" style="shape=tableRow;horizontal=0;startSize=0;swimlaneHead=0;swimlaneBody=0;strokeColor=inherit;top=0;left=0;bottom=0;right=0;collapsible=0;dropTarget=0;fillColor=none;points=[[0,0.5],[1,0.5]];portConstraint=eastwest;fontSize=16;" parent="emmkqpBWdBEhl7w6q0PS-53" vertex="1">
          <mxGeometry y="80" width="112" height="40" as="geometry" />
        </mxCell>
        <mxCell id="emmkqpBWdBEhl7w6q0PS-63" value="" style="shape=partialRectangle;html=1;whiteSpace=wrap;connectable=0;strokeColor=inherit;overflow=hidden;fillColor=none;top=0;left=0;bottom=0;right=0;pointerEvents=1;fontSize=16;" parent="emmkqpBWdBEhl7w6q0PS-62" vertex="1">
          <mxGeometry width="37" height="40" as="geometry">
            <mxRectangle width="37" height="40" as="alternateBounds" />
          </mxGeometry>
        </mxCell>
        <mxCell id="emmkqpBWdBEhl7w6q0PS-64" value="" style="shape=partialRectangle;html=1;whiteSpace=wrap;connectable=0;strokeColor=inherit;overflow=hidden;fillColor=none;top=0;left=0;bottom=0;right=0;pointerEvents=1;fontSize=16;" parent="emmkqpBWdBEhl7w6q0PS-62" vertex="1">
          <mxGeometry x="37" width="38" height="40" as="geometry">
            <mxRectangle width="38" height="40" as="alternateBounds" />
          </mxGeometry>
        </mxCell>
        <mxCell id="emmkqpBWdBEhl7w6q0PS-65" value="" style="shape=partialRectangle;html=1;whiteSpace=wrap;connectable=0;strokeColor=inherit;overflow=hidden;fillColor=none;top=0;left=0;bottom=0;right=0;pointerEvents=1;fontSize=16;" parent="emmkqpBWdBEhl7w6q0PS-62" vertex="1">
          <mxGeometry x="75" width="37" height="40" as="geometry">
            <mxRectangle width="37" height="40" as="alternateBounds" />
          </mxGeometry>
        </mxCell>
        <mxCell id="emmkqpBWdBEhl7w6q0PS-66" value="" style="shape=table;startSize=0;container=1;collapsible=0;childLayout=tableLayout;fontSize=16;" parent="1" vertex="1">
          <mxGeometry x="514" y="390" width="112" height="120" as="geometry" />
        </mxCell>
        <mxCell id="emmkqpBWdBEhl7w6q0PS-67" value="" style="shape=tableRow;horizontal=0;startSize=0;swimlaneHead=0;swimlaneBody=0;strokeColor=inherit;top=0;left=0;bottom=0;right=0;collapsible=0;dropTarget=0;fillColor=none;points=[[0,0.5],[1,0.5]];portConstraint=eastwest;fontSize=16;" parent="emmkqpBWdBEhl7w6q0PS-66" vertex="1">
          <mxGeometry width="112" height="40" as="geometry" />
        </mxCell>
        <mxCell id="emmkqpBWdBEhl7w6q0PS-68" value="" style="shape=partialRectangle;html=1;whiteSpace=wrap;connectable=0;strokeColor=inherit;overflow=hidden;fillColor=none;top=0;left=0;bottom=0;right=0;pointerEvents=1;fontSize=16;" parent="emmkqpBWdBEhl7w6q0PS-67" vertex="1">
          <mxGeometry width="37" height="40" as="geometry">
            <mxRectangle width="37" height="40" as="alternateBounds" />
          </mxGeometry>
        </mxCell>
        <mxCell id="emmkqpBWdBEhl7w6q0PS-69" value="" style="shape=partialRectangle;html=1;whiteSpace=wrap;connectable=0;strokeColor=inherit;overflow=hidden;fillColor=none;top=0;left=0;bottom=0;right=0;pointerEvents=1;fontSize=16;" parent="emmkqpBWdBEhl7w6q0PS-67" vertex="1">
          <mxGeometry x="37" width="38" height="40" as="geometry">
            <mxRectangle width="38" height="40" as="alternateBounds" />
          </mxGeometry>
        </mxCell>
        <mxCell id="emmkqpBWdBEhl7w6q0PS-70" value="" style="shape=partialRectangle;html=1;whiteSpace=wrap;connectable=0;strokeColor=inherit;overflow=hidden;fillColor=none;top=0;left=0;bottom=0;right=0;pointerEvents=1;fontSize=16;" parent="emmkqpBWdBEhl7w6q0PS-67" vertex="1">
          <mxGeometry x="75" width="37" height="40" as="geometry">
            <mxRectangle width="37" height="40" as="alternateBounds" />
          </mxGeometry>
        </mxCell>
        <mxCell id="emmkqpBWdBEhl7w6q0PS-71" value="" style="shape=tableRow;horizontal=0;startSize=0;swimlaneHead=0;swimlaneBody=0;strokeColor=inherit;top=0;left=0;bottom=0;right=0;collapsible=0;dropTarget=0;fillColor=none;points=[[0,0.5],[1,0.5]];portConstraint=eastwest;fontSize=16;" parent="emmkqpBWdBEhl7w6q0PS-66" vertex="1">
          <mxGeometry y="40" width="112" height="40" as="geometry" />
        </mxCell>
        <mxCell id="emmkqpBWdBEhl7w6q0PS-72" value="" style="shape=partialRectangle;html=1;whiteSpace=wrap;connectable=0;strokeColor=inherit;overflow=hidden;fillColor=none;top=0;left=0;bottom=0;right=0;pointerEvents=1;fontSize=16;" parent="emmkqpBWdBEhl7w6q0PS-71" vertex="1">
          <mxGeometry width="37" height="40" as="geometry">
            <mxRectangle width="37" height="40" as="alternateBounds" />
          </mxGeometry>
        </mxCell>
        <mxCell id="emmkqpBWdBEhl7w6q0PS-73" value="&lt;div style=&quot;text-align: justify;&quot;&gt;&lt;br&gt;&lt;/div&gt;" style="shape=partialRectangle;html=1;whiteSpace=wrap;connectable=0;strokeColor=inherit;overflow=hidden;fillColor=none;top=0;left=0;bottom=0;right=0;pointerEvents=1;fontSize=16;" parent="emmkqpBWdBEhl7w6q0PS-71" vertex="1">
          <mxGeometry x="37" width="38" height="40" as="geometry">
            <mxRectangle width="38" height="40" as="alternateBounds" />
          </mxGeometry>
        </mxCell>
        <mxCell id="emmkqpBWdBEhl7w6q0PS-74" value="" style="shape=partialRectangle;html=1;whiteSpace=wrap;connectable=0;strokeColor=inherit;overflow=hidden;fillColor=none;top=0;left=0;bottom=0;right=0;pointerEvents=1;fontSize=16;" parent="emmkqpBWdBEhl7w6q0PS-71" vertex="1">
          <mxGeometry x="75" width="37" height="40" as="geometry">
            <mxRectangle width="37" height="40" as="alternateBounds" />
          </mxGeometry>
        </mxCell>
        <mxCell id="emmkqpBWdBEhl7w6q0PS-75" value="" style="shape=tableRow;horizontal=0;startSize=0;swimlaneHead=0;swimlaneBody=0;strokeColor=inherit;top=0;left=0;bottom=0;right=0;collapsible=0;dropTarget=0;fillColor=none;points=[[0,0.5],[1,0.5]];portConstraint=eastwest;fontSize=16;" parent="emmkqpBWdBEhl7w6q0PS-66" vertex="1">
          <mxGeometry y="80" width="112" height="40" as="geometry" />
        </mxCell>
        <mxCell id="emmkqpBWdBEhl7w6q0PS-76" value="" style="shape=partialRectangle;html=1;whiteSpace=wrap;connectable=0;strokeColor=inherit;overflow=hidden;fillColor=none;top=0;left=0;bottom=0;right=0;pointerEvents=1;fontSize=16;" parent="emmkqpBWdBEhl7w6q0PS-75" vertex="1">
          <mxGeometry width="37" height="40" as="geometry">
            <mxRectangle width="37" height="40" as="alternateBounds" />
          </mxGeometry>
        </mxCell>
        <mxCell id="emmkqpBWdBEhl7w6q0PS-77" value="" style="shape=partialRectangle;html=1;whiteSpace=wrap;connectable=0;strokeColor=inherit;overflow=hidden;fillColor=none;top=0;left=0;bottom=0;right=0;pointerEvents=1;fontSize=16;" parent="emmkqpBWdBEhl7w6q0PS-75" vertex="1">
          <mxGeometry x="37" width="38" height="40" as="geometry">
            <mxRectangle width="38" height="40" as="alternateBounds" />
          </mxGeometry>
        </mxCell>
        <mxCell id="emmkqpBWdBEhl7w6q0PS-78" value="" style="shape=partialRectangle;html=1;whiteSpace=wrap;connectable=0;strokeColor=inherit;overflow=hidden;fillColor=none;top=0;left=0;bottom=0;right=0;pointerEvents=1;fontSize=16;" parent="emmkqpBWdBEhl7w6q0PS-75" vertex="1">
          <mxGeometry x="75" width="37" height="40" as="geometry">
            <mxRectangle width="37" height="40" as="alternateBounds" />
          </mxGeometry>
        </mxCell>
        <mxCell id="emmkqpBWdBEhl7w6q0PS-51" value="" style="rounded=1;whiteSpace=wrap;html=1;absoluteArcSize=1;arcSize=14;strokeWidth=2;fillColor=default;opacity=90;" parent="1" vertex="1">
          <mxGeometry x="520" y="370" width="100" height="140" as="geometry" />
        </mxCell>
        <mxCell id="emmkqpBWdBEhl7w6q0PS-79" value="" style="verticalLabelPosition=bottom;verticalAlign=top;html=1;shape=mxgraph.basic.rect;fillColor2=none;strokeWidth=1;size=20;indent=100;fillColor=#f5f5f5;fontColor=#333333;strokeColor=#666666;" parent="1" vertex="1">
          <mxGeometry x="193.5" y="427" width="109" height="13" as="geometry" />
        </mxCell>
        <mxCell id="emmkqpBWdBEhl7w6q0PS-80" value="" style="verticalLabelPosition=bottom;verticalAlign=top;html=1;shape=mxgraph.basic.rect;fillColor2=none;strokeWidth=1;size=20;indent=100;fillColor=#f5f5f5;fontColor=#333333;strokeColor=#666666;" parent="1" vertex="1">
          <mxGeometry x="193.5" y="442" width="109" height="13" as="geometry" />
        </mxCell>
        <mxCell id="emmkqpBWdBEhl7w6q0PS-81" value="" style="verticalLabelPosition=bottom;verticalAlign=top;html=1;shape=mxgraph.basic.rect;fillColor2=none;strokeWidth=1;size=20;indent=100;fillColor=#f5f5f5;fontColor=#333333;strokeColor=#666666;" parent="1" vertex="1">
          <mxGeometry x="193.5" y="457" width="109" height="13" as="geometry" />
        </mxCell>
        <mxCell id="emmkqpBWdBEhl7w6q0PS-82" value="" style="verticalLabelPosition=bottom;verticalAlign=top;html=1;shape=mxgraph.basic.rect;fillColor2=none;strokeWidth=1;size=20;indent=100;fillColor=#f5f5f5;fontColor=#333333;strokeColor=#666666;" parent="1" vertex="1">
          <mxGeometry x="193.5" y="472" width="109" height="13" as="geometry" />
        </mxCell>
        <mxCell id="emmkqpBWdBEhl7w6q0PS-83" value="&lt;font style=&quot;font-size: 9px;&quot;&gt;пролистать ниже&lt;/font&gt;" style="text;html=1;align=center;verticalAlign=middle;resizable=0;points=[];autosize=1;strokeColor=none;fillColor=none;" parent="1" vertex="1">
          <mxGeometry x="206" y="496" width="90" height="30" as="geometry" />
        </mxCell>
        <mxCell id="emmkqpBWdBEhl7w6q0PS-85" value="" style="shape=singleArrow;direction=south;whiteSpace=wrap;html=1;" parent="1" vertex="1">
          <mxGeometry x="239.5" y="485" width="17" height="20" as="geometry" />
        </mxCell>
        <mxCell id="emmkqpBWdBEhl7w6q0PS-86" value="" style="verticalLabelPosition=bottom;verticalAlign=top;html=1;shape=mxgraph.basic.pie;startAngle=0.2;endAngle=0.9;rotation=-75;" parent="1" vertex="1">
          <mxGeometry x="203" y="413.5" width="10" height="10" as="geometry" />
        </mxCell>
        <mxCell id="emmkqpBWdBEhl7w6q0PS-87" value="&lt;font style=&quot;font-size: 9px;&quot;&gt;история просмотра&lt;/font&gt;" style="text;html=1;align=center;verticalAlign=middle;resizable=0;points=[];autosize=1;strokeColor=none;fillColor=none;" parent="1" vertex="1">
          <mxGeometry x="207" y="402" width="100" height="30" as="geometry" />
        </mxCell>
        <mxCell id="emmkqpBWdBEhl7w6q0PS-88" value="&lt;font style=&quot;font-size: 9px;&quot;&gt;настройка 1&lt;/font&gt;" style="text;html=1;align=center;verticalAlign=middle;resizable=0;points=[];autosize=1;strokeColor=none;fillColor=none;" parent="1" vertex="1">
          <mxGeometry x="216" y="358" width="70" height="30" as="geometry" />
        </mxCell>
        <mxCell id="emmkqpBWdBEhl7w6q0PS-89" value="&lt;font style=&quot;font-size: 9px;&quot;&gt;история лайков&lt;/font&gt;" style="text;html=1;align=center;verticalAlign=middle;resizable=0;points=[];autosize=1;strokeColor=none;fillColor=none;" parent="1" vertex="1">
          <mxGeometry x="206" y="372" width="90" height="30" as="geometry" />
        </mxCell>
        <mxCell id="emmkqpBWdBEhl7w6q0PS-90" value="&lt;font style=&quot;font-size: 9px;&quot;&gt;сохраненные&lt;/font&gt;" style="text;html=1;align=center;verticalAlign=middle;resizable=0;points=[];autosize=1;strokeColor=none;fillColor=none;" parent="1" vertex="1">
          <mxGeometry x="211" y="387" width="80" height="30" as="geometry" />
        </mxCell>
        <mxCell id="emmkqpBWdBEhl7w6q0PS-91" value="&lt;font style=&quot;font-size: 9px;&quot;&gt;настройка 2&lt;/font&gt;" style="text;html=1;align=center;verticalAlign=middle;resizable=0;points=[];autosize=1;strokeColor=none;fillColor=none;" parent="1" vertex="1">
          <mxGeometry x="216" y="417" width="70" height="30" as="geometry" />
        </mxCell>
        <mxCell id="emmkqpBWdBEhl7w6q0PS-92" value="&lt;font style=&quot;font-size: 9px;&quot;&gt;настройка 4&lt;/font&gt;" style="text;html=1;align=center;verticalAlign=middle;resizable=0;points=[];autosize=1;strokeColor=none;fillColor=none;" parent="1" vertex="1">
          <mxGeometry x="216" y="433" width="70" height="30" as="geometry" />
        </mxCell>
        <mxCell id="emmkqpBWdBEhl7w6q0PS-93" value="&lt;font style=&quot;font-size: 9px;&quot;&gt;настройка 7&lt;/font&gt;" style="text;html=1;align=center;verticalAlign=middle;resizable=0;points=[];autosize=1;strokeColor=none;fillColor=none;" parent="1" vertex="1">
          <mxGeometry x="216" y="447" width="70" height="30" as="geometry" />
        </mxCell>
        <mxCell id="emmkqpBWdBEhl7w6q0PS-94" value="&lt;font style=&quot;font-size: 9px;&quot;&gt;настройка 6&lt;/font&gt;" style="text;html=1;align=center;verticalAlign=middle;resizable=0;points=[];autosize=1;strokeColor=none;fillColor=none;" parent="1" vertex="1">
          <mxGeometry x="216" y="462" width="70" height="30" as="geometry" />
        </mxCell>
        <mxCell id="emmkqpBWdBEhl7w6q0PS-95" value="" style="verticalLabelPosition=bottom;verticalAlign=top;html=1;shape=mxgraph.flowchart.or;" parent="1" vertex="1">
          <mxGeometry x="203" y="428.5" width="10" height="10" as="geometry" />
        </mxCell>
        <mxCell id="emmkqpBWdBEhl7w6q0PS-96" value="" style="verticalLabelPosition=bottom;verticalAlign=top;html=1;shape=mxgraph.flowchart.or;" parent="1" vertex="1">
          <mxGeometry x="203" y="443.5" width="10" height="10" as="geometry" />
        </mxCell>
        <mxCell id="emmkqpBWdBEhl7w6q0PS-97" value="" style="verticalLabelPosition=bottom;verticalAlign=top;html=1;shape=mxgraph.flowchart.or;" parent="1" vertex="1">
          <mxGeometry x="203" y="458.5" width="10" height="10" as="geometry" />
        </mxCell>
        <mxCell id="emmkqpBWdBEhl7w6q0PS-98" value="" style="verticalLabelPosition=bottom;verticalAlign=top;html=1;shape=mxgraph.flowchart.or;" parent="1" vertex="1">
          <mxGeometry x="203" y="473.5" width="10" height="10" as="geometry" />
        </mxCell>
        <mxCell id="emmkqpBWdBEhl7w6q0PS-99" value="" style="verticalLabelPosition=bottom;verticalAlign=top;html=1;shape=mxgraph.flowchart.or;" parent="1" vertex="1">
          <mxGeometry x="203" y="368.5" width="10" height="10" as="geometry" />
        </mxCell>
        <mxCell id="emmkqpBWdBEhl7w6q0PS-100" value="" style="strokeWidth=2;html=1;shape=mxgraph.flowchart.decision;whiteSpace=wrap;" parent="1" vertex="1">
          <mxGeometry x="201" y="398.5" width="10" height="10" as="geometry" />
        </mxCell>
        <mxCell id="emmkqpBWdBEhl7w6q0PS-101" value="" style="strokeWidth=2;html=1;shape=mxgraph.flowchart.database;whiteSpace=wrap;" parent="1" vertex="1">
          <mxGeometry x="201" y="383.5" width="10" height="10" as="geometry" />
        </mxCell>
        <mxCell id="emmkqpBWdBEhl7w6q0PS-103" value="" style="shape=table;startSize=0;container=1;collapsible=0;childLayout=tableLayout;fontSize=16;" parent="1" vertex="1">
          <mxGeometry x="674" y="382" width="112" height="120" as="geometry" />
        </mxCell>
        <mxCell id="emmkqpBWdBEhl7w6q0PS-104" value="" style="shape=tableRow;horizontal=0;startSize=0;swimlaneHead=0;swimlaneBody=0;strokeColor=inherit;top=0;left=0;bottom=0;right=0;collapsible=0;dropTarget=0;fillColor=none;points=[[0,0.5],[1,0.5]];portConstraint=eastwest;fontSize=16;" parent="emmkqpBWdBEhl7w6q0PS-103" vertex="1">
          <mxGeometry width="112" height="40" as="geometry" />
        </mxCell>
        <mxCell id="emmkqpBWdBEhl7w6q0PS-105" value="" style="shape=partialRectangle;html=1;whiteSpace=wrap;connectable=0;strokeColor=inherit;overflow=hidden;fillColor=none;top=0;left=0;bottom=0;right=0;pointerEvents=1;fontSize=16;" parent="emmkqpBWdBEhl7w6q0PS-104" vertex="1">
          <mxGeometry width="37" height="40" as="geometry">
            <mxRectangle width="37" height="40" as="alternateBounds" />
          </mxGeometry>
        </mxCell>
        <mxCell id="emmkqpBWdBEhl7w6q0PS-106" value="" style="shape=partialRectangle;html=1;whiteSpace=wrap;connectable=0;strokeColor=inherit;overflow=hidden;fillColor=none;top=0;left=0;bottom=0;right=0;pointerEvents=1;fontSize=16;" parent="emmkqpBWdBEhl7w6q0PS-104" vertex="1">
          <mxGeometry x="37" width="38" height="40" as="geometry">
            <mxRectangle width="38" height="40" as="alternateBounds" />
          </mxGeometry>
        </mxCell>
        <mxCell id="emmkqpBWdBEhl7w6q0PS-107" value="" style="shape=partialRectangle;html=1;whiteSpace=wrap;connectable=0;strokeColor=inherit;overflow=hidden;fillColor=none;top=0;left=0;bottom=0;right=0;pointerEvents=1;fontSize=16;" parent="emmkqpBWdBEhl7w6q0PS-104" vertex="1">
          <mxGeometry x="75" width="37" height="40" as="geometry">
            <mxRectangle width="37" height="40" as="alternateBounds" />
          </mxGeometry>
        </mxCell>
        <mxCell id="emmkqpBWdBEhl7w6q0PS-108" value="" style="shape=tableRow;horizontal=0;startSize=0;swimlaneHead=0;swimlaneBody=0;strokeColor=inherit;top=0;left=0;bottom=0;right=0;collapsible=0;dropTarget=0;fillColor=none;points=[[0,0.5],[1,0.5]];portConstraint=eastwest;fontSize=16;" parent="emmkqpBWdBEhl7w6q0PS-103" vertex="1">
          <mxGeometry y="40" width="112" height="40" as="geometry" />
        </mxCell>
        <mxCell id="emmkqpBWdBEhl7w6q0PS-109" value="" style="shape=partialRectangle;html=1;whiteSpace=wrap;connectable=0;strokeColor=inherit;overflow=hidden;fillColor=none;top=0;left=0;bottom=0;right=0;pointerEvents=1;fontSize=16;" parent="emmkqpBWdBEhl7w6q0PS-108" vertex="1">
          <mxGeometry width="37" height="40" as="geometry">
            <mxRectangle width="37" height="40" as="alternateBounds" />
          </mxGeometry>
        </mxCell>
        <mxCell id="emmkqpBWdBEhl7w6q0PS-110" value="&lt;div style=&quot;text-align: justify;&quot;&gt;&lt;br&gt;&lt;/div&gt;" style="shape=partialRectangle;html=1;whiteSpace=wrap;connectable=0;strokeColor=inherit;overflow=hidden;fillColor=none;top=0;left=0;bottom=0;right=0;pointerEvents=1;fontSize=16;" parent="emmkqpBWdBEhl7w6q0PS-108" vertex="1">
          <mxGeometry x="37" width="38" height="40" as="geometry">
            <mxRectangle width="38" height="40" as="alternateBounds" />
          </mxGeometry>
        </mxCell>
        <mxCell id="emmkqpBWdBEhl7w6q0PS-111" value="" style="shape=partialRectangle;html=1;whiteSpace=wrap;connectable=0;strokeColor=inherit;overflow=hidden;fillColor=none;top=0;left=0;bottom=0;right=0;pointerEvents=1;fontSize=16;" parent="emmkqpBWdBEhl7w6q0PS-108" vertex="1">
          <mxGeometry x="75" width="37" height="40" as="geometry">
            <mxRectangle width="37" height="40" as="alternateBounds" />
          </mxGeometry>
        </mxCell>
        <mxCell id="emmkqpBWdBEhl7w6q0PS-112" value="" style="shape=tableRow;horizontal=0;startSize=0;swimlaneHead=0;swimlaneBody=0;strokeColor=inherit;top=0;left=0;bottom=0;right=0;collapsible=0;dropTarget=0;fillColor=none;points=[[0,0.5],[1,0.5]];portConstraint=eastwest;fontSize=16;" parent="emmkqpBWdBEhl7w6q0PS-103" vertex="1">
          <mxGeometry y="80" width="112" height="40" as="geometry" />
        </mxCell>
        <mxCell id="emmkqpBWdBEhl7w6q0PS-113" value="" style="shape=partialRectangle;html=1;whiteSpace=wrap;connectable=0;strokeColor=inherit;overflow=hidden;fillColor=none;top=0;left=0;bottom=0;right=0;pointerEvents=1;fontSize=16;" parent="emmkqpBWdBEhl7w6q0PS-112" vertex="1">
          <mxGeometry width="37" height="40" as="geometry">
            <mxRectangle width="37" height="40" as="alternateBounds" />
          </mxGeometry>
        </mxCell>
        <mxCell id="emmkqpBWdBEhl7w6q0PS-114" value="" style="shape=partialRectangle;html=1;whiteSpace=wrap;connectable=0;strokeColor=inherit;overflow=hidden;fillColor=none;top=0;left=0;bottom=0;right=0;pointerEvents=1;fontSize=16;" parent="emmkqpBWdBEhl7w6q0PS-112" vertex="1">
          <mxGeometry x="37" width="38" height="40" as="geometry">
            <mxRectangle width="38" height="40" as="alternateBounds" />
          </mxGeometry>
        </mxCell>
        <mxCell id="emmkqpBWdBEhl7w6q0PS-115" value="" style="shape=partialRectangle;html=1;whiteSpace=wrap;connectable=0;strokeColor=inherit;overflow=hidden;fillColor=none;top=0;left=0;bottom=0;right=0;pointerEvents=1;fontSize=16;" parent="emmkqpBWdBEhl7w6q0PS-112" vertex="1">
          <mxGeometry x="75" width="37" height="40" as="geometry">
            <mxRectangle width="37" height="40" as="alternateBounds" />
          </mxGeometry>
        </mxCell>
        <mxCell id="emmkqpBWdBEhl7w6q0PS-52" value="" style="rounded=1;whiteSpace=wrap;html=1;absoluteArcSize=1;arcSize=14;strokeWidth=2;opacity=90;" parent="1" vertex="1">
          <mxGeometry x="680" y="440" width="100" height="70" as="geometry" />
        </mxCell>
        <mxCell id="emmkqpBWdBEhl7w6q0PS-138" value="" style="rounded=1;whiteSpace=wrap;html=1;arcSize=14;fillColor=#d5e8d4;strokeColor=#82b366;" parent="1" vertex="1">
          <mxGeometry x="360" y="350.5" width="100" height="22" as="geometry" />
        </mxCell>
        <mxCell id="emmkqpBWdBEhl7w6q0PS-139" value="&lt;font style=&quot;font-size: 5px;&quot;&gt;Выбрать дату&lt;/font&gt;" style="text;html=1;align=center;verticalAlign=middle;resizable=0;points=[];autosize=1;strokeColor=none;fillColor=none;" parent="1" vertex="1">
          <mxGeometry x="380" y="345" width="60" height="30" as="geometry" />
        </mxCell>
        <mxCell id="emmkqpBWdBEhl7w6q0PS-140" value="" style="endArrow=classic;html=1;rounded=0;" parent="1" edge="1">
          <mxGeometry width="50" height="50" relative="1" as="geometry">
            <mxPoint x="240" y="280" as="sourcePoint" />
            <mxPoint x="240" y="310" as="targetPoint" />
          </mxGeometry>
        </mxCell>
        <mxCell id="emmkqpBWdBEhl7w6q0PS-142" value="Icon" style="icon;html=1;image=img/clipart/Gear_128x128.png" parent="1" vertex="1">
          <mxGeometry x="276" y="275" width="10" height="30" as="geometry" />
        </mxCell>
        <mxCell id="emmkqpBWdBEhl7w6q0PS-150" value="" style="group" parent="1" vertex="1" connectable="0">
          <mxGeometry x="360" y="311" width="7" height="14" as="geometry" />
        </mxCell>
        <mxCell id="emmkqpBWdBEhl7w6q0PS-148" value="" style="endArrow=none;html=1;rounded=0;" parent="emmkqpBWdBEhl7w6q0PS-150" edge="1">
          <mxGeometry width="50" height="50" relative="1" as="geometry">
            <mxPoint x="7" y="14" as="sourcePoint" />
            <mxPoint y="8" as="targetPoint" />
          </mxGeometry>
        </mxCell>
        <mxCell id="emmkqpBWdBEhl7w6q0PS-149" value="" style="endArrow=none;html=1;rounded=0;" parent="emmkqpBWdBEhl7w6q0PS-150" edge="1">
          <mxGeometry width="50" height="50" relative="1" as="geometry">
            <mxPoint x="6" as="sourcePoint" />
            <mxPoint y="7" as="targetPoint" />
          </mxGeometry>
        </mxCell>
        <mxCell id="emmkqpBWdBEhl7w6q0PS-151" value="" style="group" parent="1" vertex="1" connectable="0">
          <mxGeometry x="520" y="330" width="7" height="14" as="geometry" />
        </mxCell>
        <mxCell id="emmkqpBWdBEhl7w6q0PS-152" value="" style="endArrow=none;html=1;rounded=0;" parent="emmkqpBWdBEhl7w6q0PS-151" edge="1">
          <mxGeometry width="50" height="50" relative="1" as="geometry">
            <mxPoint x="7" y="14" as="sourcePoint" />
            <mxPoint y="8" as="targetPoint" />
          </mxGeometry>
        </mxCell>
        <mxCell id="emmkqpBWdBEhl7w6q0PS-153" value="" style="endArrow=none;html=1;rounded=0;" parent="emmkqpBWdBEhl7w6q0PS-151" edge="1">
          <mxGeometry width="50" height="50" relative="1" as="geometry">
            <mxPoint x="6" as="sourcePoint" />
            <mxPoint y="7" as="targetPoint" />
          </mxGeometry>
        </mxCell>
        <mxCell id="emmkqpBWdBEhl7w6q0PS-154" value="" style="group" parent="1" vertex="1" connectable="0">
          <mxGeometry x="680" y="331" width="7" height="14" as="geometry" />
        </mxCell>
        <mxCell id="emmkqpBWdBEhl7w6q0PS-155" value="" style="endArrow=none;html=1;rounded=0;" parent="emmkqpBWdBEhl7w6q0PS-154" edge="1">
          <mxGeometry width="50" height="50" relative="1" as="geometry">
            <mxPoint x="7" y="14" as="sourcePoint" />
            <mxPoint y="8" as="targetPoint" />
          </mxGeometry>
        </mxCell>
        <mxCell id="emmkqpBWdBEhl7w6q0PS-156" value="" style="endArrow=none;html=1;rounded=0;" parent="emmkqpBWdBEhl7w6q0PS-154" edge="1">
          <mxGeometry width="50" height="50" relative="1" as="geometry">
            <mxPoint x="6" as="sourcePoint" />
            <mxPoint y="7" as="targetPoint" />
          </mxGeometry>
        </mxCell>
        <mxCell id="emmkqpBWdBEhl7w6q0PS-157" value="&lt;font style=&quot;font-size: 7px;&quot;&gt;фильтровать&lt;/font&gt;&lt;div style=&quot;font-size: 7px;&quot;&gt;&lt;font style=&quot;font-size: 7px;&quot;&gt;&amp;nbsp;по дате&lt;/font&gt;&lt;/div&gt;" style="text;html=1;align=center;verticalAlign=middle;resizable=0;points=[];autosize=1;strokeColor=none;fillColor=none;fontSize=7;" parent="1" vertex="1">
          <mxGeometry x="535" y="373.5" width="70" height="30" as="geometry" />
        </mxCell>
        <mxCell id="emmkqpBWdBEhl7w6q0PS-158" value="&lt;font style=&quot;font-size: 5px;&quot;&gt;за прошлую&lt;/font&gt;&lt;div&gt;&lt;font style=&quot;font-size: 5px;&quot;&gt;неделю&lt;/font&gt;&lt;/div&gt;" style="text;html=1;align=left;verticalAlign=middle;resizable=0;points=[];autosize=1;strokeColor=none;fillColor=none;fontSize=6;" parent="1" vertex="1">
          <mxGeometry x="527" y="412" width="50" height="30" as="geometry" />
        </mxCell>
        <mxCell id="emmkqpBWdBEhl7w6q0PS-159" value="&lt;b style=&quot;font-size: 5px;&quot;&gt;&lt;font style=&quot;font-size: 5px;&quot;&gt;за прошлый&lt;/font&gt;&lt;/b&gt;&lt;div&gt;&lt;b style=&quot;font-size: 5px;&quot;&gt;&lt;font style=&quot;font-size: 5px;&quot;&gt;месяц&lt;/font&gt;&lt;/b&gt;&lt;/div&gt;" style="text;html=1;align=left;verticalAlign=middle;resizable=0;points=[];autosize=1;strokeColor=none;fillColor=none;fontSize=6;" parent="1" vertex="1">
          <mxGeometry x="527" y="438.5" width="50" height="30" as="geometry" />
        </mxCell>
        <mxCell id="emmkqpBWdBEhl7w6q0PS-160" value="выбрать даты" style="text;html=1;align=left;verticalAlign=middle;resizable=0;points=[];autosize=1;strokeColor=none;fillColor=none;fontSize=6;" parent="1" vertex="1">
          <mxGeometry x="527" y="473.5" width="60" height="20" as="geometry" />
        </mxCell>
        <mxCell id="emmkqpBWdBEhl7w6q0PS-162" value="" style="ellipse;whiteSpace=wrap;html=1;aspect=fixed;" parent="1" vertex="1">
          <mxGeometry x="602.5" y="422" width="10" height="10" as="geometry" />
        </mxCell>
        <mxCell id="emmkqpBWdBEhl7w6q0PS-163" value="" style="ellipse;whiteSpace=wrap;html=1;aspect=fixed;" parent="1" vertex="1">
          <mxGeometry x="602.5" y="448.5" width="10" height="10" as="geometry" />
        </mxCell>
        <mxCell id="emmkqpBWdBEhl7w6q0PS-165" value="&lt;font style=&quot;font-size: 8px;&quot;&gt;дата начала&lt;/font&gt;" style="text;html=1;align=left;verticalAlign=middle;resizable=0;points=[];autosize=1;strokeColor=none;fillColor=none;" parent="1" vertex="1">
          <mxGeometry x="685" y="447" width="70" height="30" as="geometry" />
        </mxCell>
        <mxCell id="emmkqpBWdBEhl7w6q0PS-166" value="дата конца" style="text;html=1;align=left;verticalAlign=middle;resizable=0;points=[];autosize=1;strokeColor=none;fillColor=none;fontSize=8;" parent="1" vertex="1">
          <mxGeometry x="687" y="478.5" width="60" height="20" as="geometry" />
        </mxCell>
        <mxCell id="emmkqpBWdBEhl7w6q0PS-167" value="" style="triangle;whiteSpace=wrap;html=1;" parent="1" vertex="1">
          <mxGeometry x="755" y="453" width="15" height="17" as="geometry" />
        </mxCell>
        <mxCell id="emmkqpBWdBEhl7w6q0PS-168" value="" style="triangle;whiteSpace=wrap;html=1;" parent="1" vertex="1">
          <mxGeometry x="755" y="478.5" width="15" height="17" as="geometry" />
        </mxCell>
        <mxCell id="emmkqpBWdBEhl7w6q0PS-170" value="" style="shape=singleArrow;whiteSpace=wrap;html=1;rotation=90;" parent="1" vertex="1">
          <mxGeometry x="711" y="537" width="38" height="7" as="geometry" />
        </mxCell>
        <mxCell id="emmkqpBWdBEhl7w6q0PS-172" value="" style="rounded=1;whiteSpace=wrap;html=1;" parent="1" vertex="1">
          <mxGeometry x="670" y="560" width="120" height="100" as="geometry" />
        </mxCell>
        <mxCell id="emmkqpBWdBEhl7w6q0PS-173" value="&lt;font style=&quot;font-size: 8px;&quot;&gt;готово&lt;/font&gt;" style="text;html=1;align=center;verticalAlign=middle;resizable=0;points=[];autosize=1;strokeColor=none;fillColor=none;" parent="1" vertex="1">
          <mxGeometry x="737.5" y="560" width="50" height="30" as="geometry" />
        </mxCell>
        <mxCell id="emmkqpBWdBEhl7w6q0PS-174" value="" style="shape=cross;whiteSpace=wrap;html=1;rotation=45;" parent="1" vertex="1">
          <mxGeometry x="680" y="565" width="20" height="20" as="geometry" />
        </mxCell>
        <mxCell id="emmkqpBWdBEhl7w6q0PS-175" value="" style="rounded=1;whiteSpace=wrap;html=1;" parent="1" vertex="1">
          <mxGeometry x="674" y="590" width="35" height="60" as="geometry" />
        </mxCell>
        <mxCell id="emmkqpBWdBEhl7w6q0PS-176" value="" style="rounded=1;whiteSpace=wrap;html=1;" parent="1" vertex="1">
          <mxGeometry x="712" y="590" width="35" height="60" as="geometry" />
        </mxCell>
        <mxCell id="emmkqpBWdBEhl7w6q0PS-177" value="" style="rounded=1;whiteSpace=wrap;html=1;" parent="1" vertex="1">
          <mxGeometry x="750.5" y="590" width="35" height="60" as="geometry" />
        </mxCell>
        <mxCell id="emmkqpBWdBEhl7w6q0PS-178" value="Date picker" style="text;html=1;align=center;verticalAlign=middle;resizable=0;points=[];autosize=1;strokeColor=none;fillColor=none;" parent="1" vertex="1">
          <mxGeometry x="687" y="720" width="80" height="30" as="geometry" />
        </mxCell>
        <mxCell id="emmkqpBWdBEhl7w6q0PS-179" value="" style="shape=flexArrow;endArrow=classic;startArrow=classic;html=1;rounded=0;entryX=0.483;entryY=0.991;entryDx=0;entryDy=0;entryPerimeter=0;width=3;" parent="1" source="emmkqpBWdBEhl7w6q0PS-178" target="emmkqpBWdBEhl7w6q0PS-172" edge="1">
          <mxGeometry width="100" height="100" relative="1" as="geometry">
            <mxPoint x="730" y="689" as="sourcePoint" />
            <mxPoint x="790" y="620" as="targetPoint" />
          </mxGeometry>
        </mxCell>
        <mxCell id="emmkqpBWdBEhl7w6q0PS-180" value="11&lt;div style=&quot;font-size: 9px;&quot;&gt;12&lt;/div&gt;&lt;div style=&quot;font-size: 9px;&quot;&gt;&lt;b&gt;13&lt;/b&gt;&lt;/div&gt;&lt;div style=&quot;font-size: 9px;&quot;&gt;14&lt;/div&gt;&lt;div style=&quot;font-size: 9px;&quot;&gt;15&lt;/div&gt;" style="text;html=1;align=center;verticalAlign=middle;resizable=0;points=[];autosize=1;strokeColor=none;fillColor=none;fontSize=9;" parent="1" vertex="1">
          <mxGeometry x="674" y="585" width="30" height="70" as="geometry" />
        </mxCell>
        <mxCell id="emmkqpBWdBEhl7w6q0PS-181" value="октябрь&lt;div style=&quot;font-size: 8px;&quot;&gt;&lt;b style=&quot;font-size: 8px;&quot;&gt;ноябрь&lt;/b&gt;&lt;/div&gt;&lt;div style=&quot;font-size: 8px;&quot;&gt;декабрь&lt;/div&gt;" style="text;html=1;align=center;verticalAlign=middle;resizable=0;points=[];autosize=1;strokeColor=none;fillColor=none;fontSize=8;" parent="1" vertex="1">
          <mxGeometry x="704.5" y="600" width="50" height="40" as="geometry" />
        </mxCell>
        <mxCell id="emmkqpBWdBEhl7w6q0PS-182" value="2021&lt;div style=&quot;font-size: 8px;&quot;&gt;2022&lt;/div&gt;&lt;div style=&quot;font-size: 8px;&quot;&gt;2023&lt;/div&gt;&lt;div style=&quot;font-size: 8px;&quot;&gt;&lt;b style=&quot;font-size: 8px;&quot;&gt;2024&lt;/b&gt;&lt;/div&gt;&lt;div style=&quot;font-size: 8px;&quot;&gt;2025&lt;/div&gt;" style="text;html=1;align=center;verticalAlign=middle;resizable=0;points=[];autosize=1;strokeColor=none;fillColor=none;fontSize=8;" parent="1" vertex="1">
          <mxGeometry x="747.5" y="590" width="40" height="60" as="geometry" />
        </mxCell>
        <mxCell id="LGIxMy3m_IKITtVKF9D_-1" value="я как пользователь социальной сети &quot;инстаграм&quot; хочу видеть раздел в приложении со всеми просмотренными видео reels, с сортировкой по дате, для того, чтобы иметь возможность вернуться к любому просмотренному видео в конкретную дату" style="rounded=1;whiteSpace=wrap;html=1;" vertex="1" parent="1">
          <mxGeometry x="320" y="120" width="256" height="130" as="geometry" />
        </mxCell>
        <mxCell id="LGIxMy3m_IKITtVKF9D_-3" value="" style="ellipse;whiteSpace=wrap;html=1;aspect=fixed;" vertex="1" parent="1">
          <mxGeometry x="602.5" y="478.5" width="10" height="10" as="geometry" />
        </mxCell>
        <mxCell id="LGIxMy3m_IKITtVKF9D_-5" value="" style="shape=cross;whiteSpace=wrap;html=1;rotation=45;fillColor=#FF6666;" vertex="1" parent="1">
          <mxGeometry x="528.49" y="378.64" width="12.21" height="15" as="geometry" />
        </mxCell>
        <mxCell id="LGIxMy3m_IKITtVKF9D_-6" value="" style="rounded=1;whiteSpace=wrap;html=1;absoluteArcSize=1;arcSize=14;strokeWidth=2;" vertex="1" parent="1">
          <mxGeometry x="827" y="317" width="120" height="200" as="geometry" />
        </mxCell>
        <mxCell id="LGIxMy3m_IKITtVKF9D_-7" value="" style="shape=table;startSize=0;container=1;collapsible=0;childLayout=tableLayout;fontSize=16;" vertex="1" parent="1">
          <mxGeometry x="831" y="378.5" width="112" height="120" as="geometry" />
        </mxCell>
        <mxCell id="LGIxMy3m_IKITtVKF9D_-8" value="" style="shape=tableRow;horizontal=0;startSize=0;swimlaneHead=0;swimlaneBody=0;strokeColor=inherit;top=0;left=0;bottom=0;right=0;collapsible=0;dropTarget=0;fillColor=none;points=[[0,0.5],[1,0.5]];portConstraint=eastwest;fontSize=16;" vertex="1" parent="LGIxMy3m_IKITtVKF9D_-7">
          <mxGeometry width="112" height="40" as="geometry" />
        </mxCell>
        <mxCell id="LGIxMy3m_IKITtVKF9D_-9" value="" style="shape=partialRectangle;html=1;whiteSpace=wrap;connectable=0;strokeColor=inherit;overflow=hidden;fillColor=none;top=0;left=0;bottom=0;right=0;pointerEvents=1;fontSize=16;" vertex="1" parent="LGIxMy3m_IKITtVKF9D_-8">
          <mxGeometry width="37" height="40" as="geometry">
            <mxRectangle width="37" height="40" as="alternateBounds" />
          </mxGeometry>
        </mxCell>
        <mxCell id="LGIxMy3m_IKITtVKF9D_-10" value="" style="shape=partialRectangle;html=1;whiteSpace=wrap;connectable=0;strokeColor=inherit;overflow=hidden;fillColor=none;top=0;left=0;bottom=0;right=0;pointerEvents=1;fontSize=16;" vertex="1" parent="LGIxMy3m_IKITtVKF9D_-8">
          <mxGeometry x="37" width="38" height="40" as="geometry">
            <mxRectangle width="38" height="40" as="alternateBounds" />
          </mxGeometry>
        </mxCell>
        <mxCell id="LGIxMy3m_IKITtVKF9D_-11" value="" style="shape=partialRectangle;html=1;whiteSpace=wrap;connectable=0;strokeColor=inherit;overflow=hidden;fillColor=none;top=0;left=0;bottom=0;right=0;pointerEvents=1;fontSize=16;" vertex="1" parent="LGIxMy3m_IKITtVKF9D_-8">
          <mxGeometry x="75" width="37" height="40" as="geometry">
            <mxRectangle width="37" height="40" as="alternateBounds" />
          </mxGeometry>
        </mxCell>
        <mxCell id="LGIxMy3m_IKITtVKF9D_-12" value="" style="shape=tableRow;horizontal=0;startSize=0;swimlaneHead=0;swimlaneBody=0;strokeColor=inherit;top=0;left=0;bottom=0;right=0;collapsible=0;dropTarget=0;fillColor=none;points=[[0,0.5],[1,0.5]];portConstraint=eastwest;fontSize=16;" vertex="1" parent="LGIxMy3m_IKITtVKF9D_-7">
          <mxGeometry y="40" width="112" height="40" as="geometry" />
        </mxCell>
        <mxCell id="LGIxMy3m_IKITtVKF9D_-13" value="" style="shape=partialRectangle;html=1;whiteSpace=wrap;connectable=0;strokeColor=inherit;overflow=hidden;fillColor=none;top=0;left=0;bottom=0;right=0;pointerEvents=1;fontSize=16;" vertex="1" parent="LGIxMy3m_IKITtVKF9D_-12">
          <mxGeometry width="37" height="40" as="geometry">
            <mxRectangle width="37" height="40" as="alternateBounds" />
          </mxGeometry>
        </mxCell>
        <mxCell id="LGIxMy3m_IKITtVKF9D_-14" value="&lt;div style=&quot;text-align: justify;&quot;&gt;&lt;br&gt;&lt;/div&gt;" style="shape=partialRectangle;html=1;whiteSpace=wrap;connectable=0;strokeColor=inherit;overflow=hidden;fillColor=none;top=0;left=0;bottom=0;right=0;pointerEvents=1;fontSize=16;" vertex="1" parent="LGIxMy3m_IKITtVKF9D_-12">
          <mxGeometry x="37" width="38" height="40" as="geometry">
            <mxRectangle width="38" height="40" as="alternateBounds" />
          </mxGeometry>
        </mxCell>
        <mxCell id="LGIxMy3m_IKITtVKF9D_-15" value="" style="shape=partialRectangle;html=1;whiteSpace=wrap;connectable=0;strokeColor=inherit;overflow=hidden;fillColor=none;top=0;left=0;bottom=0;right=0;pointerEvents=1;fontSize=16;" vertex="1" parent="LGIxMy3m_IKITtVKF9D_-12">
          <mxGeometry x="75" width="37" height="40" as="geometry">
            <mxRectangle width="37" height="40" as="alternateBounds" />
          </mxGeometry>
        </mxCell>
        <mxCell id="LGIxMy3m_IKITtVKF9D_-16" value="" style="shape=tableRow;horizontal=0;startSize=0;swimlaneHead=0;swimlaneBody=0;strokeColor=inherit;top=0;left=0;bottom=0;right=0;collapsible=0;dropTarget=0;fillColor=none;points=[[0,0.5],[1,0.5]];portConstraint=eastwest;fontSize=16;" vertex="1" parent="LGIxMy3m_IKITtVKF9D_-7">
          <mxGeometry y="80" width="112" height="40" as="geometry" />
        </mxCell>
        <mxCell id="LGIxMy3m_IKITtVKF9D_-17" value="" style="shape=partialRectangle;html=1;whiteSpace=wrap;connectable=0;strokeColor=inherit;overflow=hidden;fillColor=none;top=0;left=0;bottom=0;right=0;pointerEvents=1;fontSize=16;" vertex="1" parent="LGIxMy3m_IKITtVKF9D_-16">
          <mxGeometry width="37" height="40" as="geometry">
            <mxRectangle width="37" height="40" as="alternateBounds" />
          </mxGeometry>
        </mxCell>
        <mxCell id="LGIxMy3m_IKITtVKF9D_-18" value="" style="shape=partialRectangle;html=1;whiteSpace=wrap;connectable=0;strokeColor=inherit;overflow=hidden;fillColor=none;top=0;left=0;bottom=0;right=0;pointerEvents=1;fontSize=16;" vertex="1" parent="LGIxMy3m_IKITtVKF9D_-16">
          <mxGeometry x="37" width="38" height="40" as="geometry">
            <mxRectangle width="38" height="40" as="alternateBounds" />
          </mxGeometry>
        </mxCell>
        <mxCell id="LGIxMy3m_IKITtVKF9D_-19" value="" style="shape=partialRectangle;html=1;whiteSpace=wrap;connectable=0;strokeColor=inherit;overflow=hidden;fillColor=none;top=0;left=0;bottom=0;right=0;pointerEvents=1;fontSize=16;" vertex="1" parent="LGIxMy3m_IKITtVKF9D_-16">
          <mxGeometry x="75" width="37" height="40" as="geometry">
            <mxRectangle width="37" height="40" as="alternateBounds" />
          </mxGeometry>
        </mxCell>
        <mxCell id="LGIxMy3m_IKITtVKF9D_-20" value="&lt;font style=&quot;font-size: 9px;&quot;&gt;Ваши видео reels&lt;/font&gt;" style="text;html=1;align=center;verticalAlign=middle;resizable=0;points=[];autosize=1;strokeColor=none;fillColor=none;fontSize=10;" vertex="1" parent="1">
          <mxGeometry x="841" y="323" width="100" height="30" as="geometry" />
        </mxCell>
        <mxCell id="LGIxMy3m_IKITtVKF9D_-21" value="" style="group" vertex="1" connectable="0" parent="1">
          <mxGeometry x="840" y="330" width="7" height="14" as="geometry" />
        </mxCell>
        <mxCell id="LGIxMy3m_IKITtVKF9D_-22" value="" style="endArrow=none;html=1;rounded=0;" edge="1" parent="LGIxMy3m_IKITtVKF9D_-21">
          <mxGeometry width="50" height="50" relative="1" as="geometry">
            <mxPoint x="7" y="14" as="sourcePoint" />
            <mxPoint y="8" as="targetPoint" />
          </mxGeometry>
        </mxCell>
        <mxCell id="LGIxMy3m_IKITtVKF9D_-23" value="" style="endArrow=none;html=1;rounded=0;" edge="1" parent="LGIxMy3m_IKITtVKF9D_-21">
          <mxGeometry width="50" height="50" relative="1" as="geometry">
            <mxPoint x="6" as="sourcePoint" />
            <mxPoint y="7" as="targetPoint" />
          </mxGeometry>
        </mxCell>
        <mxCell id="LGIxMy3m_IKITtVKF9D_-24" value="" style="shape=singleArrow;whiteSpace=wrap;html=1;" vertex="1" parent="1">
          <mxGeometry x="790" y="420" width="37" height="7" as="geometry" />
        </mxCell>
      </root>
    </mxGraphModel>
  </diagram>
</mxfile>
